{
  "asset": {
    "version": "2.0"
  },
  "extensionsUsed": ["LMX_scene", "KHR_lights_punctual", "KHR_materials_emissive_strength"],
  "scene": 0,
  "scenes": [
    {
      "name": "MaterialLab",
      "nodes": [0, 1, 2, 3, 4, 5, 6, 7, 8, 9, 10, 11, 12, 13, 14, 15, 16, 17, 18, 19, 20, 21, 22, 23, 24, 25, 26, 27, 28, 29, 30, 31, 32, 33, 34, 35, 36, 37, 41, 42]
    }
  ],
  "nodes": [
    {
      "name": "material-lab sphere r0c0",
      "translation": [-3, -3, 0],
      "mesh": 0,
      "extensions": {
        "LMX_scene": {
          "enabled": true
        }
      }
    },
    {
      "name": "material-lab sphere r0c1",
      "translation": [-1.5, -3, 0],
      "mesh": 1,
      "extensions": {
        "LMX_scene": {
          "enabled": true
        }
      }
    },
    {
      "name": "material-lab sphere r0c2",
      "translation": [0, -3, 0],
      "mesh": 2,
      "extensions": {
        "LMX_scene": {
          "enabled": true
        }
      }
    },
    {
      "name": "material-lab sphere r0c3",
      "translation": [1.5, -3, 0],
      "mesh": 3,
      "extensions": {
        "LMX_scene": {
          "enabled": true
        }
      }
    },
    {
      "name": "material-lab sphere r0c4",
      "translation": [3, -3, 0],
      "mesh": 4,
      "extensions": {
        "LMX_scene": {
          "enabled": true
        }
      }
    },
    {
      "name": "material-lab sphere r1c0",
      "translation": [-3, -1.5, 0],
      "mesh": 5,
      "extensions": {
        "LMX_scene": {
          "enabled": true
        }
      }
    },
    {
      "name": "material-lab sphere r1c1",
      "translation": [-1.5, -1.5, 0],
      "mesh": 6,
      "extensions": {
        "LMX_scene": {
          "enabled": true
        }
      }
    },
    {
      "name": "material-lab sphere r1c2",
      "translation": [0, -1.5, 0],
      "mesh": 7,
      "extensions": {
        "LMX_scene": {
          "enabled": true
        }
      }
    },
    {
      "name": "material-lab sphere r1c3",
      "translation": [1.5, -1.5, 0],
      "mesh": 8,
      "extensions": {
        "LMX_scene": {
          "enabled": true
        }
      }
    },
    {
      "name": "material-lab sphere r1c4",
      "translation": [3, -1.5, 0],
      "mesh": 9,
      "extensions": {
        "LMX_scene": {
          "enabled": true
        }
      }
    },
    {
      "name": "material-lab sphere r2c0",
      "translation": [-3, 0, 0],
      "mesh": 10,
      "extensions": {
        "LMX_scene": {
          "enabled": true
        }
      }
    },
    {
      "name": "material-lab sphere r2c1",
      "translation": [-1.5, 0, 0],
      "mesh": 11,
      "extensions": {
        "LMX_scene": {
          "enabled": true
        }
      }
    },
    {
      "name": "material-lab sphere r2c2",
      "mesh": 12,
      "extensions": {
        "LMX_scene": {
          "enabled": true
        }
      }
    },
    {
      "name": "material-lab sphere r2c3",
      "translation": [1.5, 0, 0],
      "mesh": 13,
      "extensions": {
        "LMX_scene": {
          "enabled": true
        }
      }
    },
    {
      "name": "material-lab sphere r2c4",
      "translation": [3, 0, 0],
      "mesh": 14,
      "extensions": {
        "LMX_scene": {
          "enabled": true
        }
      }
    },
    {
      "name": "material-lab sphere r3c0",
      "translation": [-3, 1.5, 0],
      "mesh": 15,
      "extensions": {
        "LMX_scene": {
          "enabled": true
        }
      }
    },
    {
      "name": "material-lab sphere r3c1",
      "translation": [-1.5, 1.5, 0],
      "mesh": 16,
      "extensions": {
        "LMX_scene": {
          "enabled": true
        }
      }
    },
    {
      "name": "material-lab sphere r3c2",
      "translation": [0, 1.5, 0],
      "mesh": 17,
      "extensions": {
        "LMX_scene": {
          "enabled": true
        }
      }
    },
    {
      "name": "material-lab sphere r3c3",
      "translation": [1.5, 1.5, 0],
      "mesh": 18,
      "extensions": {
        "LMX_scene": {
          "enabled": true
        }
      }
    },
    {
      "name": "material-lab sphere r3c4",
      "translation": [3, 1.5, 0],
      "mesh": 19,
      "extensions": {
        "LMX_scene": {
          "enabled": true
        }
      }
    },
    {
      "name": "material-lab sphere r4c0",
      "translation": [-3, 3, 0],
      "mesh": 20,
      "extensions": {
        "LMX_scene": {
          "enabled": true
        }
      }
    },
    {
      "name": "material-lab sphere r4c1",
      "translation": [-1.5, 3, 0],
      "mesh": 21,
      "extensions": {
        "LMX_scene": {
          "enabled": true
        }
      }
    },
    {
      "name": "material-lab sphere r4c2",
      "translation": [0, 3, 0],
      "mesh": 22,
      "extensions": {
        "LMX_scene": {
          "enabled": true
        }
      }
    },
    {
      "name": "material-lab sphere r4c3",
      "translation": [1.5, 3, 0],
      "mesh": 23,
      "extensions": {
        "LMX_scene": {
          "enabled": true
        }
      }
    },
    {
      "name": "material-lab sphere r4c4",
      "translation": [3, 3, 0],
      "mesh": 24,
      "extensions": {
        "LMX_scene": {
          "enabled": true
        }
      }
    },
    {
      "name": "material-lab patch red",
      "translation": [11, 1.5, 0],
      "mesh": 25,
      "extensions": {
        "LMX_scene": {
          "enabled": true
        }
      }
    },
    {
      "name": "material-lab patch green",
      "translation": [12.2, 1.5, 0],
      "mesh": 26,
      "extensions": {
        "LMX_scene": {
          "enabled": true
        }
      }
    },
    {
      "name": "material-lab patch blue",
      "translation": [13.4, 1.5, 0],
      "mesh": 27,
      "extensions": {
        "LMX_scene": {
          "enabled": true
        }
      }
    },
    {
      "name": "material-lab patch gray18",
      "translation": [14.6, 1.5, 0],
      "mesh": 28,
      "extensions": {
        "LMX_scene": {
          "enabled": true
        }
      }
    },
    {
      "name": "material-lab patch white",
      "translation": [15.8, 1.5, 0],
      "mesh": 29,
      "extensions": {
        "LMX_scene": {
          "enabled": true
        }
      }
    },
    {
      "name": "material-lab patch black",
      "translation": [17, 1.5, 0],
      "mesh": 30,
      "extensions": {
        "LMX_scene": {
          "enabled": true
        }
      }
    },
    {
      "name": "material-lab gradient ramp",
      "translation": [14, 0, 0],
      "mesh": 31,
      "extensions": {
        "LMX_scene": {
          "enabled": true
        }
      }
    },
    {
      "name": "material-lab normal probe",
      "translation": [14, -1.5, 0],
      "mesh": 32,
      "extensions": {
        "LMX_scene": {
          "enabled": true
        }
      }
    },
    {
      "name": "material-lab depth probe near",
      "translation": [27.6, 0, 10],
      "scale": [0.5, 0.5, 0.5],
      "mesh": 33,
      "extensions": {
        "LMX_scene": {
          "enabled": true
        }
      }
    },
    {
      "name": "material-lab depth probe mid",
      "translation": [29, 0, 2],
      "scale": [0.5, 0.5, 0.5],
      "mesh": 34,
      "extensions": {
        "LMX_scene": {
          "enabled": true
        }
      }
    },
    {
      "name": "material-lab depth probe far",
      "translation": [35, 0, -28],
      "scale": [0.5, 0.5, 0.5],
      "mesh": 35,
      "extensions": {
        "LMX_scene": {
          "enabled": true
        }
      }
    },
    {
      "name": "material-lab mip probe",
      "translation": [0, 0, 27],
      "mesh": 36,
      "extensions": {
        "LMX_scene": {
          "enabled": true
        }
      }
    },
    {
      "name": "Scene Camera",
      "translation": [0, 0, 12],
      "camera": 0,
      "extensions": {
        "LMX_scene": {
          "enabled": true
        }
      }
    },
    {
      "name": "Key",
      "rotation": [-0.627963, -0.627963, 0, 0.45970085],
      "extensions": {
        "KHR_lights_punctual": {
          "light": 0
        },
        "LMX_scene": {
          "enabled": false,
          "mobility": "movable",
          "role": "key",
          "castsShadow": true
        }
      }
    },
    {
      "name": "Fill",
      "rotation": [-0.627963, 0.627963, 0, 0.45970085],
      "extensions": {
        "KHR_lights_punctual": {
          "light": 1
        },
        "LMX_scene": {
          "enabled": false,
          "mobility": "movable",
          "role": "fill",
          "castsShadow": false
        }
      }
    },
    {
      "name": "Rim",
      "rotation": [-0.38268346, -0, 0, 0.92387956],
      "extensions": {
        "KHR_lights_punctual": {
          "light": 2
        },
        "LMX_scene": {
          "enabled": false,
          "mobility": "movable",
          "role": "rim",
          "castsShadow": false
        }
      }
    },
    {
      "name": "Damaged Helmet · axis station",
      "translation": [6.2, 0, 0],
      "extensions": {
        "LMX_scene": {
          "enabled": true,
          "mobility": "movable",
          "asset": {
            "uri": "Fetched/DamagedHelmet/DamagedHelmet.glb",
            "sha256": "a1e3b04de97b11de564ce6e53b95f02954a297f0008183ac63a4f5974f6b32d8"
          }
        }
      }
    },
    {
      "name": "Lights",
      "children": [38, 39, 40],
      "extensions": {
        "LMX_scene": {
          "enabled": true
        }
      }
    }
  ],
  "cameras": [
    {
      "name": "Scene Camera",
      "type": "perspective",
      "perspective": {
        "yfov": 0.7853982,
        "znear": 0.1,
        "zfar": 100
      }
    }
  ],
  "buffers": [
    {
      "uri": "material-lab.scene.geometry.bin",
      "byteLength": 74736
    }
  ],
  "bufferViews": [
    {
      "buffer": 0,
      "byteOffset": 0,
      "byteLength": 49200,
      "byteStride": 48,
      "target": 34962
    },
    {
      "buffer": 0,
      "byteOffset": 49200,
      "byteLength": 23808,
      "target": 34963
    },
    {
      "buffer": 0,
      "byteOffset": 73008,
      "byteLength": 192,
      "byteStride": 48,
      "target": 34962
    },
    {
      "buffer": 0,
      "byteOffset": 73200,
      "byteLength": 24,
      "target": 34963
    },
    {
      "buffer": 0,
      "byteOffset": 73224,
      "byteLength": 192,
      "byteStride": 48,
      "target": 34962
    },
    {
      "buffer": 0,
      "byteOffset": 73416,
      "byteLength": 24,
      "target": 34963
    },
    {
      "buffer": 0,
      "byteOffset": 73440,
      "byteLength": 1152,
      "byteStride": 48,
      "target": 34962
    },
    {
      "buffer": 0,
      "byteOffset": 74592,
      "byteLength": 144,
      "target": 34963
    }
  ],
  "accessors": [
    {
      "bufferView": 0,
      "byteOffset": 0,
      "componentType": 5126,
      "count": 1025,
      "type": "VEC3",
      "min": [-0.5, -0.5, -0.5],
      "max": [0.5, 0.5, 0.5]
    },
    {
      "bufferView": 0,
      "byteOffset": 12,
      "componentType": 5126,
      "count": 1025,
      "type": "VEC3"
    },
    {
      "bufferView": 0,
      "byteOffset": 24,
      "componentType": 5126,
      "count": 1025,
      "type": "VEC4"
    },
    {
      "bufferView": 0,
      "byteOffset": 40,
      "componentType": 5126,
      "count": 1025,
      "type": "VEC2"
    },
    {
      "bufferView": 1,
      "byteOffset": 0,
      "componentType": 5125,
      "count": 5952,
      "type": "SCALAR"
    },
    {
      "bufferView": 2,
      "byteOffset": 0,
      "componentType": 5126,
      "count": 4,
      "type": "VEC3",
      "min": [-0.5, -0.5, 0],
      "max": [0.5, 0.5, 0]
    },
    {
      "bufferView": 2,
      "byteOffset": 12,
      "componentType": 5126,
      "count": 4,
      "type": "VEC3"
    },
    {
      "bufferView": 2,
      "byteOffset": 24,
      "componentType": 5126,
      "count": 4,
      "type": "VEC4"
    },
    {
      "bufferView": 2,
      "byteOffset": 40,
      "componentType": 5126,
      "count": 4,
      "type": "VEC2"
    },
    {
      "bufferView": 3,
      "byteOffset": 0,
      "componentType": 5125,
      "count": 6,
      "type": "SCALAR"
    },
    {
      "bufferView": 4,
      "byteOffset": 0,
      "componentType": 5126,
      "count": 4,
      "type": "VEC3",
      "min": [-3, -0.5, 0],
      "max": [3, 0.5, 0]
    },
    {
      "bufferView": 4,
      "byteOffset": 12,
      "componentType": 5126,
      "count": 4,
      "type": "VEC3"
    },
    {
      "bufferView": 4,
      "byteOffset": 24,
      "componentType": 5126,
      "count": 4,
      "type": "VEC4"
    },
    {
      "bufferView": 4,
      "byteOffset": 40,
      "componentType": 5126,
      "count": 4,
      "type": "VEC2"
    },
    {
      "bufferView": 5,
      "byteOffset": 0,
      "componentType": 5125,
      "count": 6,
      "type": "SCALAR"
    },
    {
      "bufferView": 6,
      "byteOffset": 0,
      "componentType": 5126,
      "count": 24,
      "type": "VEC3",
      "min": [-0.5, -0.5, -0.5],
      "max": [0.5, 0.5, 0.5]
    },
    {
      "bufferView": 6,
      "byteOffset": 12,
      "componentType": 5126,
      "count": 24,
      "type": "VEC3"
    },
    {
      "bufferView": 6,
      "byteOffset": 24,
      "componentType": 5126,
      "count": 24,
      "type": "VEC4"
    },
    {
      "bufferView": 6,
      "byteOffset": 40,
      "componentType": 5126,
      "count": 24,
      "type": "VEC2"
    },
    {
      "bufferView": 7,
      "byteOffset": 0,
      "componentType": 5125,
      "count": 36,
      "type": "SCALAR"
    }
  ],
  "meshes": [
    {
      "name": "material-lab sphere r0c0",
      "primitives": [
        {
          "attributes": {
            "POSITION": 0,
            "NORMAL": 1,
            "TANGENT": 2,
            "TEXCOORD_0": 3
          },
          "indices": 4,
          "material": 0
        }
      ]
    },
    {
      "name": "material-lab sphere r0c1",
      "primitives": [
        {
          "attributes": {
            "POSITION": 0,
            "NORMAL": 1,
            "TANGENT": 2,
            "TEXCOORD_0": 3
          },
          "indices": 4,
          "material": 1
        }
      ]
    },
    {
      "name": "material-lab sphere r0c2",
      "primitives": [
        {
          "attributes": {
            "POSITION": 0,
            "NORMAL": 1,
            "TANGENT": 2,
            "TEXCOORD_0": 3
          },
          "indices": 4,
          "material": 2
        }
      ]
    },
    {
      "name": "material-lab sphere r0c3",
      "primitives": [
        {
          "attributes": {
            "POSITION": 0,
            "NORMAL": 1,
            "TANGENT": 2,
            "TEXCOORD_0": 3
          },
          "indices": 4,
          "material": 3
        }
      ]
    },
    {
      "name": "material-lab sphere r0c4",
      "primitives": [
        {
          "attributes": {
            "POSITION": 0,
            "NORMAL": 1,
            "TANGENT": 2,
            "TEXCOORD_0": 3
          },
          "indices": 4,
          "material": 4
        }
      ]
    },
    {
      "name": "material-lab sphere r1c0",
      "primitives": [
        {
          "attributes": {
            "POSITION": 0,
            "NORMAL": 1,
            "TANGENT": 2,
            "TEXCOORD_0": 3
          },
          "indices": 4,
          "material": 5
        }
      ]
    },
    {
      "name": "material-lab sphere r1c1",
      "primitives": [
        {
          "attributes": {
            "POSITION": 0,
            "NORMAL": 1,
            "TANGENT": 2,
            "TEXCOORD_0": 3
          },
          "indices": 4,
          "material": 6
        }
      ]
    },
    {
      "name": "material-lab sphere r1c2",
      "primitives": [
        {
          "attributes": {
            "POSITION": 0,
            "NORMAL": 1,
            "TANGENT": 2,
            "TEXCOORD_0": 3
          },
          "indices": 4,
          "material": 7
        }
      ]
    },
    {
      "name": "material-lab sphere r1c3",
      "primitives": [
        {
          "attributes": {
            "POSITION": 0,
            "NORMAL": 1,
            "TANGENT": 2,
            "TEXCOORD_0": 3
          },
          "indices": 4,
          "material": 8
        }
      ]
    },
    {
      "name": "material-lab sphere r1c4",
      "primitives": [
        {
          "attributes": {
            "POSITION": 0,
            "NORMAL": 1,
            "TANGENT": 2,
            "TEXCOORD_0": 3
          },
          "indices": 4,
          "material": 9
        }
      ]
    },
    {
      "name": "material-lab sphere r2c0",
      "primitives": [
        {
          "attributes": {
            "POSITION": 0,
            "NORMAL": 1,
            "TANGENT": 2,
            "TEXCOORD_0": 3
          },
          "indices": 4,
          "material": 10
        }
      ]
    },
    {
      "name": "material-lab sphere r2c1",
      "primitives": [
        {
          "attributes": {
            "POSITION": 0,
            "NORMAL": 1,
            "TANGENT": 2,
            "TEXCOORD_0": 3
          },
          "indices": 4,
          "material": 11
        }
      ]
    },
    {
      "name": "material-lab sphere r2c2",
      "primitives": [
        {
          "attributes": {
            "POSITION": 0,
            "NORMAL": 1,
            "TANGENT": 2,
            "TEXCOORD_0": 3
          },
          "indices": 4,
          "material": 12
        }
      ]
    },
    {
      "name": "material-lab sphere r2c3",
      "primitives": [
        {
          "attributes": {
            "POSITION": 0,
            "NORMAL": 1,
            "TANGENT": 2,
            "TEXCOORD_0": 3
          },
          "indices": 4,
          "material": 13
        }
      ]
    },
    {
      "name": "material-lab sphere r2c4",
      "primitives": [
        {
          "attributes": {
            "POSITION": 0,
            "NORMAL": 1,
            "TANGENT": 2,
            "TEXCOORD_0": 3
          },
          "indices": 4,
          "material": 14
        }
      ]
    },
    {
      "name": "material-lab sphere r3c0",
      "primitives": [
        {
          "attributes": {
            "POSITION": 0,
            "NORMAL": 1,
            "TANGENT": 2,
            "TEXCOORD_0": 3
          },
          "indices": 4,
          "material": 15
        }
      ]
    },
    {
      "name": "material-lab sphere r3c1",
      "primitives": [
        {
          "attributes": {
            "POSITION": 0,
            "NORMAL": 1,
            "TANGENT": 2,
            "TEXCOORD_0": 3
          },
          "indices": 4,
          "material": 16
        }
      ]
    },
    {
      "name": "material-lab sphere r3c2",
      "primitives": [
        {
          "attributes": {
            "POSITION": 0,
            "NORMAL": 1,
            "TANGENT": 2,
            "TEXCOORD_0": 3
          },
          "indices": 4,
          "material": 17
        }
      ]
    },
    {
      "name": "material-lab sphere r3c3",
      "primitives": [
        {
          "attributes": {
            "POSITION": 0,
            "NORMAL": 1,
            "TANGENT": 2,
            "TEXCOORD_0": 3
          },
          "indices": 4,
          "material": 18
        }
      ]
    },
    {
      "name": "material-lab sphere r3c4",
      "primitives": [
        {
          "attributes": {
            "POSITION": 0,
            "NORMAL": 1,
            "TANGENT": 2,
            "TEXCOORD_0": 3
          },
          "indices": 4,
          "material": 19
        }
      ]
    },
    {
      "name": "material-lab sphere r4c0",
      "primitives": [
        {
          "attributes": {
            "POSITION": 0,
            "NORMAL": 1,
            "TANGENT": 2,
            "TEXCOORD_0": 3
          },
          "indices": 4,
          "material": 20
        }
      ]
    },
    {
      "name": "material-lab sphere r4c1",
      "primitives": [
        {
          "attributes": {
            "POSITION": 0,
            "NORMAL": 1,
            "TANGENT": 2,
            "TEXCOORD_0": 3
          },
          "indices": 4,
          "material": 21
        }
      ]
    },
    {
      "name": "material-lab sphere r4c2",
      "primitives": [
        {
          "attributes": {
            "POSITION": 0,
            "NORMAL": 1,
            "TANGENT": 2,
            "TEXCOORD_0": 3
          },
          "indices": 4,
          "material": 22
        }
      ]
    },
    {
      "name": "material-lab sphere r4c3",
      "primitives": [
        {
          "attributes": {
            "POSITION": 0,
            "NORMAL": 1,
            "TANGENT": 2,
            "TEXCOORD_0": 3
          },
          "indices": 4,
          "material": 23
        }
      ]
    },
    {
      "name": "material-lab sphere r4c4",
      "primitives": [
        {
          "attributes": {
            "POSITION": 0,
            "NORMAL": 1,
            "TANGENT": 2,
            "TEXCOORD_0": 3
          },
          "indices": 4,
          "material": 24
        }
      ]
    },
    {
      "name": "material-lab patch red",
      "primitives": [
        {
          "attributes": {
            "POSITION": 5,
            "NORMAL": 6,
            "TANGENT": 7,
            "TEXCOORD_0": 8
          },
          "indices": 9,
          "material": 28
        }
      ]
    },
    {
      "name": "material-lab patch green",
      "primitives": [
        {
          "attributes": {
            "POSITION": 5,
            "NORMAL": 6,
            "TANGENT": 7,
            "TEXCOORD_0": 8
          },
          "indices": 9,
          "material": 29
        }
      ]
    },
    {
      "name": "material-lab patch blue",
      "primitives": [
        {
          "attributes": {
            "POSITION": 5,
            "NORMAL": 6,
            "TANGENT": 7,
            "TEXCOORD_0": 8
          },
          "indices": 9,
          "material": 30
        }
      ]
    },
    {
      "name": "material-lab patch gray18",
      "primitives": [
        {
          "attributes": {
            "POSITION": 5,
            "NORMAL": 6,
            "TANGENT": 7,
            "TEXCOORD_0": 8
          },
          "indices": 9,
          "material": 31
        }
      ]
    },
    {
      "name": "material-lab patch white",
      "primitives": [
        {
          "attributes": {
            "POSITION": 5,
            "NORMAL": 6,
            "TANGENT": 7,
            "TEXCOORD_0": 8
          },
          "indices": 9,
          "material": 32
        }
      ]
    },
    {
      "name": "material-lab patch black",
      "primitives": [
        {
          "attributes": {
            "POSITION": 5,
            "NORMAL": 6,
            "TANGENT": 7,
            "TEXCOORD_0": 8
          },
          "indices": 9,
          "material": 33
        }
      ]
    },
    {
      "name": "material-lab gradient ramp",
      "primitives": [
        {
          "attributes": {
            "POSITION": 10,
            "NORMAL": 11,
            "TANGENT": 12,
            "TEXCOORD_0": 13
          },
          "indices": 14,
          "material": 34
        }
      ]
    },
    {
      "name": "material-lab normal probe",
      "primitives": [
        {
          "attributes": {
            "POSITION": 5,
            "NORMAL": 6,
            "TANGENT": 7,
            "TEXCOORD_0": 8
          },
          "indices": 9,
          "material": 35
        }
      ]
    },
    {
      "name": "material-lab depth probe near",
      "primitives": [
        {
          "attributes": {
            "POSITION": 15,
            "NORMAL": 16,
            "TANGENT": 17,
            "TEXCOORD_0": 18
          },
          "indices": 19,
          "material": 36
        }
      ]
    },
    {
      "name": "material-lab depth probe mid",
      "primitives": [
        {
          "attributes": {
            "POSITION": 15,
            "NORMAL": 16,
            "TANGENT": 17,
            "TEXCOORD_0": 18
          },
          "indices": 19,
          "material": 36
        }
      ]
    },
    {
      "name": "material-lab depth probe far",
      "primitives": [
        {
          "attributes": {
            "POSITION": 15,
            "NORMAL": 16,
            "TANGENT": 17,
            "TEXCOORD_0": 18
          },
          "indices": 19,
          "material": 36
        }
      ]
    },
    {
      "name": "material-lab mip probe",
      "primitives": [
        {
          "attributes": {
            "POSITION": 5,
            "NORMAL": 6,
            "TANGENT": 7,
            "TEXCOORD_0": 8
          },
          "indices": 9,
          "material": 37
        }
      ]
    }
  ],
  "materials": [
    {
      "name": "Material 0",
      "pbrMetallicRoughness": {
        "baseColorFactor": [1, 1, 1, 1],
        "metallicFactor": 0,
        "roughnessFactor": 0.05
      },
      "emissiveFactor": [0, 0, 0],
      "alphaMode": "OPAQUE",
      "alphaCutoff": 0.5,
      "doubleSided": false,
      "extensions": {
        "KHR_materials_emissive_strength": {
          "emissiveStrength": 1
        }
      }
    },
    {
      "name": "Material 1",
      "pbrMetallicRoughness": {
        "baseColorFactor": [1, 1, 1, 1],
        "metallicFactor": 0,
        "roughnessFactor": 0.2875
      },
      "emissiveFactor": [0, 0, 0],
      "alphaMode": "OPAQUE",
      "alphaCutoff": 0.5,
      "doubleSided": false,
      "extensions": {
        "KHR_materials_emissive_strength": {
          "emissiveStrength": 1
        }
      }
    },
    {
      "name": "Material 2",
      "pbrMetallicRoughness": {
        "baseColorFactor": [1, 1, 1, 1],
        "metallicFactor": 0,
        "roughnessFactor": 0.525
      },
      "emissiveFactor": [0, 0, 0],
      "alphaMode": "OPAQUE",
      "alphaCutoff": 0.5,
      "doubleSided": false,
      "extensions": {
        "KHR_materials_emissive_strength": {
          "emissiveStrength": 1
        }
      }
    },
    {
      "name": "Material 3",
      "pbrMetallicRoughness": {
        "baseColorFactor": [1, 1, 1, 1],
        "metallicFactor": 0,
        "roughnessFactor": 0.7625
      },
      "emissiveFactor": [0, 0, 0],
      "alphaMode": "OPAQUE",
      "alphaCutoff": 0.5,
      "doubleSided": false,
      "extensions": {
        "KHR_materials_emissive_strength": {
          "emissiveStrength": 1
        }
      }
    },
    {
      "name": "Material 4",
      "pbrMetallicRoughness": {
        "baseColorFactor": [1, 1, 1, 1],
        "metallicFactor": 0,
        "roughnessFactor": 1
      },
      "emissiveFactor": [0, 0, 0],
      "alphaMode": "OPAQUE",
      "alphaCutoff": 0.5,
      "doubleSided": false,
      "extensions": {
        "KHR_materials_emissive_strength": {
          "emissiveStrength": 1
        }
      }
    },
    {
      "name": "Material 5",
      "pbrMetallicRoughness": {
        "baseColorFactor": [1, 1, 1, 1],
        "metallicFactor": 0.25,
        "roughnessFactor": 0.05
      },
      "emissiveFactor": [0, 0, 0],
      "alphaMode": "OPAQUE",
      "alphaCutoff": 0.5,
      "doubleSided": false,
      "extensions": {
        "KHR_materials_emissive_strength": {
          "emissiveStrength": 1
        }
      }
    },
    {
      "name": "Material 6",
      "pbrMetallicRoughness": {
        "baseColorFactor": [1, 1, 1, 1],
        "metallicFactor": 0.25,
        "roughnessFactor": 0.2875
      },
      "emissiveFactor": [0, 0, 0],
      "alphaMode": "OPAQUE",
      "alphaCutoff": 0.5,
      "doubleSided": false,
      "extensions": {
        "KHR_materials_emissive_strength": {
          "emissiveStrength": 1
        }
      }
    },
    {
      "name": "Material 7",
      "pbrMetallicRoughness": {
        "baseColorFactor": [1, 1, 1, 1],
        "metallicFactor": 0.25,
        "roughnessFactor": 0.525
      },
      "emissiveFactor": [0, 0, 0],
      "alphaMode": "OPAQUE",
      "alphaCutoff": 0.5,
      "doubleSided": false,
      "extensions": {
        "KHR_materials_emissive_strength": {
          "emissiveStrength": 1
        }
      }
    },
    {
      "name": "Material 8",
      "pbrMetallicRoughness": {
        "baseColorFactor": [1, 1, 1, 1],
        "metallicFactor": 0.25,
        "roughnessFactor": 0.7625
      },
      "emissiveFactor": [0, 0, 0],
      "alphaMode": "OPAQUE",
      "alphaCutoff": 0.5,
      "doubleSided": false,
      "extensions": {
        "KHR_materials_emissive_strength": {
          "emissiveStrength": 1
        }
      }
    },
    {
      "name": "Material 9",
      "pbrMetallicRoughness": {
        "baseColorFactor": [1, 1, 1, 1],
        "metallicFactor": 0.25,
        "roughnessFactor": 1
      },
      "emissiveFactor": [0, 0, 0],
      "alphaMode": "OPAQUE",
      "alphaCutoff": 0.5,
      "doubleSided": false,
      "extensions": {
        "KHR_materials_emissive_strength": {
          "emissiveStrength": 1
        }
      }
    },
    {
      "name": "Material 10",
      "pbrMetallicRoughness": {
        "baseColorFactor": [1, 1, 1, 1],
        "metallicFactor": 0.5,
        "roughnessFactor": 0.05
      },
      "emissiveFactor": [0, 0, 0],
      "alphaMode": "OPAQUE",
      "alphaCutoff": 0.5,
      "doubleSided": false,
      "extensions": {
        "KHR_materials_emissive_strength": {
          "emissiveStrength": 1
        }
      }
    },
    {
      "name": "Material 11",
      "pbrMetallicRoughness": {
        "baseColorFactor": [1, 1, 1, 1],
        "metallicFactor": 0.5,
        "roughnessFactor": 0.2875
      },
      "emissiveFactor": [0, 0, 0],
      "alphaMode": "OPAQUE",
      "alphaCutoff": 0.5,
      "doubleSided": false,
      "extensions": {
        "KHR_materials_emissive_strength": {
          "emissiveStrength": 1
        }
      }
    },
    {
      "name": "Material 12",
      "pbrMetallicRoughness": {
        "baseColorFactor": [1, 1, 1, 1],
        "metallicFactor": 0.5,
        "roughnessFactor": 0.525
      },
      "emissiveFactor": [0, 0, 0],
      "alphaMode": "OPAQUE",
      "alphaCutoff": 0.5,
      "doubleSided": false,
      "extensions": {
        "KHR_materials_emissive_strength": {
          "emissiveStrength": 1
        }
      }
    },
    {
      "name": "Material 13",
      "pbrMetallicRoughness": {
        "baseColorFactor": [1, 1, 1, 1],
        "metallicFactor": 0.5,
        "roughnessFactor": 0.7625
      },
      "emissiveFactor": [0, 0, 0],
      "alphaMode": "OPAQUE",
      "alphaCutoff": 0.5,
      "doubleSided": false,
      "extensions": {
        "KHR_materials_emissive_strength": {
          "emissiveStrength": 1
        }
      }
    },
    {
      "name": "Material 14",
      "pbrMetallicRoughness": {
        "baseColorFactor": [1, 1, 1, 1],
        "metallicFactor": 0.5,
        "roughnessFactor": 1
      },
      "emissiveFactor": [0, 0, 0],
      "alphaMode": "OPAQUE",
      "alphaCutoff": 0.5,
      "doubleSided": false,
      "extensions": {
        "KHR_materials_emissive_strength": {
          "emissiveStrength": 1
        }
      }
    },
    {
      "name": "Material 15",
      "pbrMetallicRoughness": {
        "baseColorFactor": [1, 1, 1, 1],
        "metallicFactor": 0.75,
        "roughnessFactor": 0.05
      },
      "emissiveFactor": [0, 0, 0],
      "alphaMode": "OPAQUE",
      "alphaCutoff": 0.5,
      "doubleSided": false,
      "extensions": {
        "KHR_materials_emissive_strength": {
          "emissiveStrength": 1
        }
      }
    },
    {
      "name": "Material 16",
      "pbrMetallicRoughness": {
        "baseColorFactor": [1, 1, 1, 1],
        "metallicFactor": 0.75,
        "roughnessFactor": 0.2875
      },
      "emissiveFactor": [0, 0, 0],
      "alphaMode": "OPAQUE",
      "alphaCutoff": 0.5,
      "doubleSided": false,
      "extensions": {
        "KHR_materials_emissive_strength": {
          "emissiveStrength": 1
        }
      }
    },
    {
      "name": "Material 17",
      "pbrMetallicRoughness": {
        "baseColorFactor": [1, 1, 1, 1],
        "metallicFactor": 0.75,
        "roughnessFactor": 0.525
      },
      "emissiveFactor": [0, 0, 0],
      "alphaMode": "OPAQUE",
      "alphaCutoff": 0.5,
      "doubleSided": false,
      "extensions": {
        "KHR_materials_emissive_strength": {
          "emissiveStrength": 1
        }
      }
    },
    {
      "name": "Material 18",
      "pbrMetallicRoughness": {
        "baseColorFactor": [1, 1, 1, 1],
        "metallicFactor": 0.75,
        "roughnessFactor": 0.7625
      },
      "emissiveFactor": [0, 0, 0],
      "alphaMode": "OPAQUE",
      "alphaCutoff": 0.5,
      "doubleSided": false,
      "extensions": {
        "KHR_materials_emissive_strength": {
          "emissiveStrength": 1
        }
      }
    },
    {
      "name": "Material 19",
      "pbrMetallicRoughness": {
        "baseColorFactor": [1, 1, 1, 1],
        "metallicFactor": 0.75,
        "roughnessFactor": 1
      },
      "emissiveFactor": [0, 0, 0],
      "alphaMode": "OPAQUE",
      "alphaCutoff": 0.5,
      "doubleSided": false,
      "extensions": {
        "KHR_materials_emissive_strength": {
          "emissiveStrength": 1
        }
      }
    },
    {
      "name": "Material 20",
      "pbrMetallicRoughness": {
        "baseColorFactor": [1, 1, 1, 1],
        "metallicFactor": 1,
        "roughnessFactor": 0.05
      },
      "emissiveFactor": [0, 0, 0],
      "alphaMode": "OPAQUE",
      "alphaCutoff": 0.5,
      "doubleSided": false,
      "extensions": {
        "KHR_materials_emissive_strength": {
          "emissiveStrength": 1
        }
      }
    },
    {
      "name": "Material 21",
      "pbrMetallicRoughness": {
        "baseColorFactor": [1, 1, 1, 1],
        "metallicFactor": 1,
        "roughnessFactor": 0.2875
      },
      "emissiveFactor": [0, 0, 0],
      "alphaMode": "OPAQUE",
      "alphaCutoff": 0.5,
      "doubleSided": false,
      "extensions": {
        "KHR_materials_emissive_strength": {
          "emissiveStrength": 1
        }
      }
    },
    {
      "name": "Material 22",
      "pbrMetallicRoughness": {
        "baseColorFactor": [1, 1, 1, 1],
        "metallicFactor": 1,
        "roughnessFactor": 0.525
      },
      "emissiveFactor": [0, 0, 0],
      "alphaMode": "OPAQUE",
      "alphaCutoff": 0.5,
      "doubleSided": false,
      "extensions": {
        "KHR_materials_emissive_strength": {
          "emissiveStrength": 1
        }
      }
    },
    {
      "name": "Material 23",
      "pbrMetallicRoughness": {
        "baseColorFactor": [1, 1, 1, 1],
        "metallicFactor": 1,
        "roughnessFactor": 0.7625
      },
      "emissiveFactor": [0, 0, 0],
      "alphaMode": "OPAQUE",
      "alphaCutoff": 0.5,
      "doubleSided": false,
      "extensions": {
        "KHR_materials_emissive_strength": {
          "emissiveStrength": 1
        }
      }
    },
    {
      "name": "Material 24",
      "pbrMetallicRoughness": {
        "baseColorFactor": [1, 1, 1, 1],
        "metallicFactor": 1,
        "roughnessFactor": 1
      },
      "emissiveFactor": [0, 0, 0],
      "alphaMode": "OPAQUE",
      "alphaCutoff": 0.5,
      "doubleSided": false,
      "extensions": {
        "KHR_materials_emissive_strength": {
          "emissiveStrength": 1
        }
      }
    },
    {
      "name": "Material 25",
      "pbrMetallicRoughness": {
        "baseColorFactor": [1, 0.0071944073, 0.0048963088, 1],
        "metallicFactor": 0,
        "roughnessFactor": 0.35
      },
      "emissiveFactor": [0, 0, 0],
      "alphaMode": "OPAQUE",
      "alphaCutoff": 0.5,
      "doubleSided": false,
      "extensions": {
        "KHR_materials_emissive_strength": {
          "emissiveStrength": 1
        }
      }
    },
    {
      "name": "Material 26",
      "pbrMetallicRoughness": {
        "baseColorFactor": [0.0071944073, 1, 0.013411746, 1],
        "metallicFactor": 0,
        "roughnessFactor": 0.35
      },
      "emissiveFactor": [0, 0, 0],
      "alphaMode": "OPAQUE",
      "alphaCutoff": 0.5,
      "doubleSided": false,
      "extensions": {
        "KHR_materials_emissive_strength": {
          "emissiveStrength": 1
        }
      }
    },
    {
      "name": "Material 27",
      "pbrMetallicRoughness": {
        "baseColorFactor": [0.0071944073, 0.05087609, 1, 1],
        "metallicFactor": 0,
        "roughnessFactor": 0.35
      },
      "emissiveFactor": [0, 0, 0],
      "alphaMode": "OPAQUE",
      "alphaCutoff": 0.5,
      "doubleSided": false,
      "extensions": {
        "KHR_materials_emissive_strength": {
          "emissiveStrength": 1
        }
      }
    },
    {
      "name": "Material 28",
      "pbrMetallicRoughness": {
        "baseColorFactor": [1, 0, 0, 1],
        "metallicFactor": 0,
        "roughnessFactor": 0.5
      },
      "emissiveFactor": [0, 0, 0],
      "alphaMode": "OPAQUE",
      "alphaCutoff": 0.5,
      "doubleSided": false,
      "extensions": {
        "KHR_materials_emissive_strength": {
          "emissiveStrength": 1
        }
      }
    },
    {
      "name": "Material 29",
      "pbrMetallicRoughness": {
        "baseColorFactor": [0, 1, 0, 1],
        "metallicFactor": 0,
        "roughnessFactor": 0.5
      },
      "emissiveFactor": [0, 0, 0],
      "alphaMode": "OPAQUE",
      "alphaCutoff": 0.5,
      "doubleSided": false,
      "extensions": {
        "KHR_materials_emissive_strength": {
          "emissiveStrength": 1
        }
      }
    },
    {
      "name": "Material 30",
      "pbrMetallicRoughness": {
        "baseColorFactor": [0, 0, 1, 1],
        "metallicFactor": 0,
        "roughnessFactor": 0.5
      },
      "emissiveFactor": [0, 0, 0],
      "alphaMode": "OPAQUE",
      "alphaCutoff": 0.5,
      "doubleSided": false,
      "extensions": {
        "KHR_materials_emissive_strength": {
          "emissiveStrength": 1
        }
      }
    },
    {
      "name": "Material 31",
      "pbrMetallicRoughness": {
        "baseColorFactor": [0.1788675, 0.1788675, 0.1788675, 1],
        "metallicFactor": 0,
        "roughnessFactor": 0.5
      },
      "emissiveFactor": [0, 0, 0],
      "alphaMode": "OPAQUE",
      "alphaCutoff": 0.5,
      "doubleSided": false,
      "extensions": {
        "KHR_materials_emissive_strength": {
          "emissiveStrength": 1
        }
      }
    },
    {
      "name": "Material 32",
      "pbrMetallicRoughness": {
        "baseColorFactor": [1, 1, 1, 1],
        "metallicFactor": 0,
        "roughnessFactor": 0.5
      },
      "emissiveFactor": [0, 0, 0],
      "alphaMode": "OPAQUE",
      "alphaCutoff": 0.5,
      "doubleSided": false,
      "extensions": {
        "KHR_materials_emissive_strength": {
          "emissiveStrength": 1
        }
      }
    },
    {
      "name": "Material 33",
      "pbrMetallicRoughness": {
        "baseColorFactor": [0, 0, 0, 1],
        "metallicFactor": 0,
        "roughnessFactor": 0.5
      },
      "emissiveFactor": [0, 0, 0],
      "alphaMode": "OPAQUE",
      "alphaCutoff": 0.5,
      "doubleSided": false,
      "extensions": {
        "KHR_materials_emissive_strength": {
          "emissiveStrength": 1
        }
      }
    },
    {
      "name": "Material 34",
      "pbrMetallicRoughness": {
        "baseColorFactor": [1, 1, 1, 1],
        "metallicFactor": 0,
        "roughnessFactor": 0.5,
        "baseColorTexture": {
          "index": 0
        }
      },
      "emissiveFactor": [0, 0, 0],
      "alphaMode": "OPAQUE",
      "alphaCutoff": 0.5,
      "doubleSided": false,
      "extensions": {
        "KHR_materials_emissive_strength": {
          "emissiveStrength": 1
        }
      }
    },
    {
      "name": "Material 35",
      "pbrMetallicRoughness": {
        "baseColorFactor": [1, 1, 1, 1],
        "metallicFactor": 0,
        "roughnessFactor": 0.5
      },
      "normalTexture": {
        "index": 1
      },
      "emissiveFactor": [0, 0, 0],
      "alphaMode": "OPAQUE",
      "alphaCutoff": 0.5,
      "doubleSided": false,
      "extensions": {
        "KHR_materials_emissive_strength": {
          "emissiveStrength": 1
        }
      }
    },
    {
      "name": "Material 36",
      "pbrMetallicRoughness": {
        "baseColorFactor": [1, 1, 1, 1],
        "metallicFactor": 0,
        "roughnessFactor": 0.5
      },
      "emissiveFactor": [0, 0, 0],
      "alphaMode": "OPAQUE",
      "alphaCutoff": 0.5,
      "doubleSided": false,
      "extensions": {
        "KHR_materials_emissive_strength": {
          "emissiveStrength": 1
        }
      }
    },
    {
      "name": "Material 37",
      "pbrMetallicRoughness": {
        "baseColorFactor": [1, 1, 1, 1],
        "metallicFactor": 0,
        "roughnessFactor": 0.5,
        "baseColorTexture": {
          "index": 2
        }
      },
      "emissiveFactor": [0, 0, 0],
      "alphaMode": "OPAQUE",
      "alphaCutoff": 0.5,
      "doubleSided": false,
      "extensions": {
        "KHR_materials_emissive_strength": {
          "emissiveStrength": 1
        }
      }
    }
  ],
  "textures": [
    {
      "source": 0,
      "sampler": 0
    },
    {
      "source": 1,
      "sampler": 1
    },
    {
      "source": 2,
      "sampler": 2
    }
  ],
  "images": [
    {
      "name": "ramp",
      "uri": "material-lab.scene.textures/ramp.png"
    },
    {
      "name": "normal",
      "uri": "material-lab.scene.textures/normal.png"
    },
    {
      "name": "checker",
      "uri": "material-lab.scene.textures/checker.png"
    }
  ],
  "samplers": [
    {
      "minFilter": 9729
    },
    {
      "minFilter": 9729
    },
    {
      "minFilter": 9987
    }
  ],
  "extensions": {
    "KHR_lights_punctual": {
      "lights": [
        {
          "name": "Key",
          "type": "directional",
          "color": [0.8959768414497375, 0.8959768414497375, 0.8959768414497375],
          "intensity": 0.5
        },
        {
          "name": "Fill",
          "type": "directional",
          "color": [0.5296761989593506, 0.5296761989593506, 0.5296761989593506],
          "intensity": 0.0625
        },
        {
          "name": "Rim",
          "type": "directional",
          "color": [0.5296761989593506, 0.5296761989593506, 0.5296761989593506],
          "intensity": 0.0625
        }
      ]
    },
    "LMX_scene": {
      "schemaVersion": 2,
      "camera": 37,
      "look": {
        "exposure": {
          "ev": 0,
          "autoEnabled": false,
          "lowPercentile": 50,
          "highPercentile": 95,
          "targetGrey": 0.18,
          "evMin": -8,
          "evMax": 8,
          "compensationEv": 0,
          "adaptUpStopsPerSecond": 3,
          "adaptDownStopsPerSecond": 1.5
        },
        "bloom": {
          "enabled": true,
          "threshold": 1,
          "intensity": 0.2
        },
        "shadow": {
          "filter": "pcf"
        },
        "environment": {
          "skySrgb8": [149, 170, 196],
          "hdri": {
            "uri": "Fetched/MaterialLab/studio_small_09_1k.hdr",
            "sha256": "e7cfda5f4e98e623db12b8bfd0184e048488e4855d9c83e2751fb44a32e80c45",
            "yaw": 0,
            "scale": 0.25,
            "faceSize": 128,
            "diffuseFaceSize": 32
          }
        }
      },
      "loop": true,
      "bounds": {
        "min": [-3.5, -3.5, -28.25],
        "max": [35.25, 3.5, 27]
      },
      "contentHashes": {
        "material-lab.scene.geometry.bin": "a7e039fde1cf7d11fba435521005604c90ab8adbf48e31daf821a4709bea924a",
        "material-lab.scene.textures/ramp.png": "2394039a325859dc6dbe53feb91d9b6218d3be6c4b71e837795654df0c33df81",
        "material-lab.scene.textures/normal.png": "17d8daf4e7369abc7aee326c2fb94e53fa8e73144d6ae88091dc9e51a2dec4bb",
        "material-lab.scene.textures/checker.png": "2b0f7c7943ad08b901d45dd4ae986a566003eb7e8a20955603a29bb1e3ee976d"
      }
    }
  }
}
